Coordinates
version=1
nRows=14
nColumns=32
inDegrees=yes

Units are S.I. units (second, meters, Newtons, ...)
If the header above contains a line with 'inDegrees', this indicates whether rotational values are in degrees (yes) or radians (no).

endheader
time	pelvis_tilt	pelvis_list	pelvis_rotation	pelvis_tx	pelvis_ty	pelvis_tz	hip_flexion_r	hip_adduction_r	hip_rotation_r	knee_angle_r	knee_adduction_r	med_cond_adduction_r	lat_cond_adduction_r	patella_r_constrained_knee_angle	ankle_angle_r	subtalar_angle_r	mtp_angle_r	hip_flexion_l	hip_adduction_l	hip_rotation_l	knee_angle_l	knee_adduction_l	med_cond_adduction_l	lat_cond_adduction_l	patella_l_constrained_knee_angle	ankle_angle_l	subtalar_angle_l	mtp_angle_l	lumbar_extension	lumbar_bending	lumbar_rotation
      1.51000000	      2.98313357	     -2.39761907	      0.09766983	      0.18060704	      0.47971844	     -1.21354998	     81.54057965	    -49.10514618	      0.12486201	   -119.91064175	     -9.81891737	     -0.00000000	     -0.00000000	     -2.09283551	     29.65050876	     17.06674563	      0.00000000	     90.99541651	    -49.67914559	      8.86929849	   -119.93503568	     -9.72591294	     -0.00000000	     -0.00000000	     -2.09326126	     29.21294970	     19.55757127	     -0.00000000	    -46.60698825	      3.25892125	     -1.72214134
      1.51500000	      3.23804595	     -2.65987696	      0.13464442	      0.18048059	      0.47968531	     -1.21386166	     80.91136925	    -49.12322540	     -0.35087665	   -119.91102293	     -9.82186871	      0.00000000	      0.00000000	     -2.09284216	     29.65435449	     17.04958913	      0.00000000	     91.14730800	    -49.67966619	      9.38063297	   -119.93677959	     -9.72407227	     -0.00000000	     -0.00000000	     -2.09329170	     29.21723936	     19.56196395	      0.00000000	    -46.98991340	      3.59430757	     -1.48713665
      1.52000000	      3.45880621	     -2.46360339	      0.13708455	      0.18025536	      0.47966923	     -1.21379437	     80.98785793	    -49.16051970	      0.04020866	   -119.91338153	     -9.82169855	      0.00000000	     -0.00000000	     -2.09288332	     29.65541509	     17.07117574	     -0.00000000	     90.63118313	    -49.68774799	      9.02163261	   -119.93744464	     -9.72609171	      0.00000000	      0.00000000	     -2.09330331	     29.23996946	     19.55923592	     -0.00000000	    -47.33664145	      3.35500899	     -1.62622031
      1.52500000	      3.67419306	     -2.33633718	      0.14146900	      0.18003471	      0.47962362	     -1.21379066	     80.97478404	    -49.18770078	      0.30909040	   -119.91515915	     -9.82212137	      0.00000000	      0.00000000	     -2.09291435	     29.65720581	     17.08625709	     -0.00000000	     90.23436026	    -49.69363018	      8.79618607	   -119.93825652	     -9.72683386	     -0.00000000	     -0.00000000	     -2.09331748	     29.25897282	     19.55825890	      0.00000000	    -47.66708056	      3.24492740	     -1.64326026
      1.53000000	      3.91706679	     -2.63029087	      0.18314928	      0.17991166	      0.47960403	     -1.21408893	     80.30648028	    -49.19626347	     -0.23566427	   -119.91582151	     -9.82440102	     -0.00000000	     -0.00000000	     -2.09292591	     29.65955030	     17.04369284	     -0.00000000	     90.44178718	    -49.69420117	      9.36413865	   -119.93976199	     -9.72672741	      0.00000000	      0.00000000	     -2.09334375	     29.26368051	     19.56239736	     -0.00000000	    -48.03762572	      3.57860708	     -1.43046593
      1.53500000	      4.12470809	     -2.39444467	      0.17902508	      0.17968833	      0.47958174	     -1.21398716	     80.45219343	    -49.23243407	      0.23030986	   -119.91778697	     -9.82434334	     -0.00000000	     -0.00000000	     -2.09296021	     29.66087464	     17.06724572	      0.00000000	     89.87821211	    -49.70105443	      8.92986854	   -119.94027782	     -9.72889823	      0.00000000	      0.00000000	     -2.09335275	     29.28240677	     19.55945498	      0.00000000	    -48.35691890	      3.32544348	     -1.55172547
      1.54000000	      4.35114973	     -2.59682953	      0.21479517	      0.17953852	      0.47954858	     -1.21422012	     79.93649812	    -49.23986955	     -0.13679385	   -119.91850539	     -9.82596935	     -0.00000000	     -0.00000000	     -2.09297275	     29.66337439	     17.03638726	     -0.00000000	     89.96809090	    -49.70228568	      9.32506297	   -119.94149831	     -9.72841701	     -0.00000000	     -0.00000000	     -2.09337406	     29.28820777	     19.56207275	     -0.00000000	    -48.69847270	      3.54733557	     -1.41004090
      1.54500000	      4.56461400	     -2.58104171	      0.22854340	      0.17935814	      0.47952889	     -1.21428847	     79.75632922	    -49.25868517	     -0.08595057	   -119.91986953	     -9.82661454	     -0.00000000	     -0.00000000	     -2.09299656	     29.66499493	     17.02971477	      0.00000000	     89.73566123	    -49.70616704	      9.30721001	   -119.94226784	     -9.72927321	     -0.00000000	     -0.00000000	     -2.09338749	     29.30097868	     19.56167228	      0.00000000	    -49.02057888	      3.53934013	     -1.39192230
      1.55000000	      4.77080825	     -2.56557445	      0.24334881	      0.17916690	      0.47949834	     -1.21434094	     79.57733443	    -49.27414022	     -0.04099349	   -119.92094536	     -9.82736716	     -0.00000000	     -0.00000000	     -2.09301534	     29.66689288	     17.02314009	     -0.00000000	     89.51164929	    -49.71105499	      9.28915023	   -119.94300964	     -9.72996825	      0.00000000	      0.00000000	     -2.09340043	     29.31419230	     19.56313452	     -0.00000000	    -49.33416825	      3.52901133	     -1.36589307
      1.55500000	      5.02539631	     -2.12490632	      0.22651526	      0.17892301	      0.47966296	     -1.21409544	     79.94002982	    -49.34993730	      0.79761776	   -119.92282482	     -9.82704995	     -0.00000000	     -0.00000000	     -2.09304814	     29.66781490	     17.18100443	     -0.00000000	     88.55612486	    -49.71831919	      8.44045894	   -119.94291122	     -9.73487952	     -0.00000000	     -0.00000000	     -2.09339872	     29.33444547	     19.55435036	      0.00000000	    -49.70169166	      3.07846401	     -1.60553258
      1.56000000	      5.12622218	     -2.06621209	      0.21214761	      0.17874686	      0.47940333	     -1.21409137	     79.97940694	    -49.33046366	      0.94525657	   -119.92427767	     -9.82712508	      0.00000000	      0.00000000	     -2.09307350	     29.66808284	     17.06424970	      0.00000000	     88.39739905	    -49.72088851	      8.36598963	   -119.94370640	     -9.73567841	     -0.00000000	      0.00000000	     -2.09341259	     29.34648709	     19.55590026	      0.00000000	    -49.88560803	      3.00123143	     -1.62789620
      1.56500000	      5.37621180	     -2.51990254	      0.28709364	      0.17862833	      0.47943154	     -1.21451555	     79.05387087	    -49.32422307	      0.08989878	   -119.92436720	     -9.82937955	      0.00000000	     -0.00000000	     -2.09307506	     29.67084073	     16.99265329	      0.00000000	     88.85092094	    -49.72034644	      9.23692181	   -119.94504180	     -9.73252479	     -0.00000000	     -0.00000000	     -2.09343590	     29.34461137	     19.56192021	      0.00000000	    -50.23825985	      3.47226753	     -1.36423414
      1.57000000	      5.63919389	     -2.12796516	      0.27387338	      0.17843912	      0.47962682	     -1.21429817	     79.33026148	    -49.40357286	      0.84181364	   -119.92560973	     -9.82961637	      0.00000000	      0.00000000	     -2.09309675	     29.67280914	     17.19183277	      0.00000000	     87.94309263	    -49.72846203	      8.48506775	   -119.94490274	     -9.73685747	      0.00000000	     -0.00000000	     -2.09343347	     29.36196500	     19.55558734	      0.00000000	    -50.60183730	      3.04149681	     -1.59816660
      1.57500000	      5.75740584	     -2.47197304	      0.30955120	      0.17828854	      0.47938006	     -1.21460531	     78.75114320	    -49.35059663	      0.20848146	   -119.92648448	     -9.83061321	     -0.00000000	     -0.00000000	     -2.09311201	     29.67310387	     16.98010204	     -0.00000000	     88.40567108	    -49.72641437	      9.17516967	   -119.94625947	     -9.73346754	      0.00000000	      0.00000000	     -2.09345715	     29.36392832	     19.56279500	     -0.00000000	    -50.80098939	      3.43385611	     -1.33292450
